<svg xmlns="http://www.w3.org/2000/svg" width="1024" height="1024" class="injected-svg" data-src="https://storage.googleapis.com/illustroke-c1d67.appspot.com/eSmBHqSRcJdyOybnPHAQRyUD4v32/SLHCXZ3KI3BCMP0MFKWXO-1.svg" xmlns:xlink="http://www.w3.org/1999/xlink" viewBox="0 0 512 512"><path fill="#0c0805" d="M0 0h512v512H0V0Z"/><path fill="#cde778" d="M0 0h512v512H353v-19h-67c1.7-8.3 3-12 7-19 0-8-6.8-7-13.5-8.2-7.3-1.7-7.3-1.7-8.2-7.6l.7-5.2.3-3.4c2-12.4 6.9-17.8 19-20.7l4-1 3.7-.9a71 71 0 0 0 51.2-55c3.4-5.7 10.3-2.8 15.8-1-3.5 22.8-19.4 52.2-41 63 11.9 11.9 54-8 65-15 22.5-16.2 36-37.8 47-63l1.6-3.6A273.4 273.4 0 0 0 455 291l.7-4c13.7-81.4-7.6-145.2-83.7-184l-4-2.2c-3.6-1.6-7.2-3-10.9-4.2-8.8-3.2-16.4-7-24-12.6A175.4 175.4 0 0 0 276 59l-1-1-9.3-2-5-1c-13.8-2.4-27.6-2.3-41.5-2.3H216c-15.4 0-30 1-45 4.3l-6.4 1c-4.8.9-8.2 1.9-12.6 4l-3.6 1.2C109.2 79.4 86.3 122.5 72 160l-1.6 4.2c-4.9 13-8 26.4-11.4 39.8l-1.2 4.9c-6.3 25.4-8 50.7-8.1 76.8v5.4c0 38.2 10.6 78.1 35.3 107.9l2 2.5c16.7 20 45.6 30.1 71 25.5l-2.6-3-3.4-4-3-3c-8.5-11-15-26-15-40 4-3.8 7.5-5.2 13-4 3 3.3 5.3 6.8 7.6 10.6a83.2 83.2 0 0 0 48.5 37.4c15.4 5 24.7 11.2 24.6 28.7-3.8 9.7-16.6 12.7-25.7 16.3-3.4 1.7-3.4 1.7-3 5l4 2c2.7 6.4 4 10 4 17-45.8.2-45.8.2-68-1l1 23H0V0Z"/><path fill="#fcba8f" d="M339 95c8.8 4.4 11.3 32.1 13 41.3a460.8 460.8 0 0 1 6.8 156.8c-.8 5.7-1.3 11.3-1.7 17-1.1 12.1-3 24-5.1 35.9l-.8 4.4c-7.3 39.7-28.7 66.1-68.6 74.4-14.5 4.8-14.8 19.8-14.6 32.8a10888.8 10888.8 0 0 1 .2 16c.5 36.7.5 36.7-7.5 40.4-16.1-1-16.1-1-17.7-8.7-1.9-6.1-6.5-10.8-10.4-15.8-4.2-5.7-3.7-10.7-3.8-17.7a11180.6 11180.6 0 0 0-.3-25.1v-5.6c-1.3-15.2-10.7-20.4-24-25.4-52.6-20.4-67.2-76-67-128.1v-3c.2-25.1 1.8-50.1 7.6-74.6.9-3.8 1.4-7.5 1.8-11.4 1.9-9 9-13.3 16.1-18.6l5.4-4.6a408 408 0 0 1 47.5-32.2c6.9-4.2 6.9-4.2 9.1-4.2v9l7.7-3.8 4.3-2c3.4-1.9 6.1-3.7 9-6.2a42.8 42.8 0 0 1-6.9 11.6l-2.6 3.3c-5.8 7-6.9 7.2-15.5 5.1-17.6-1.6-27.4 7.7-39.7 18.9a195 195 0 0 1-6.3 5.4c-3.3 2.6-3.3 2.6-5 6.7l3.4-2.5c33-24 33-24 42.3-23.8l3.4.1c2.9.2 2.9.2 5.9 1.2-2 5-3.9 7.4-7.4 11.4-22.5 24.5-22.5 24.5-29.6 55.6l1.8-3.3 2.4-4.3 2.4-4.3c5.9-10.1 5.9-10.1 9.4-10.1l2-5c3.2-4.3 5.4-5.4 10-8l7.3-5.2c4-2.7 8-5.2 12-7.7l2.7-1.6c7.7-4.8 15.5-9.4 23.2-14.1l3.6-2.2c5.2-3.2 10.3-6.3 15.5-9.3a215.4 215.4 0 0 0 41.4-32.5c8.1-7.8 14.3-15.3 17.3-26.4Z"/><path fill="#834a00" d="M218.6 64.8h3.2a256.4 256.4 0 0 1 51.5 4.1C285.1 71.3 337 83 337 96a185.7 185.7 0 0 1-41 42l-3.3 2.6c-8.4 6.2-17 11.8-26 17.4-7.4 4.7-14.5 9.8-21.7 15l-4.8 3.4-4.8 3.4-4.3 3c-4.2 3.3-8.1 6.7-12.1 10.2-3.6 2.7-7 5-11 7l-2 3.5c-2 3.5-2 3.5-6 5.5-2.1 3.3-2.1 3.3-4 7.3-7 13.7-7 13.7-9 13.7-1.2-21.4 12.4-36.1 25.6-51.6 6.9-7.7 6.9-7.7 12.4-16.4-10.6-.7-18.2-.3-27 6l-4.3 3-13.7 10c-9.7 7.1-9.7 7.1-12 6 5.3-6.1 10.7-11.8 17-17l3.6-3 3.9-3.3 3.7-3a28.6 28.6 0 0 1 18.2-6h3.4c3.2.3 3.2.3 8.2 1.6 7.3 1.3 10.4-6 14.3-11.6l2.7-3.8 2-2.9-4 3-6.6 3.7-3.4 1.9c-3 1.4-3 1.4-6 1.4-1.7-9-1.7-9 4-13l4-2.8 4.4-3.3c19.9-12.7 19.9-12.7 31-32.3l.9-4.3.7-3.3-1.6 4c-8.3 17-27.9 27.3-43.4 37l-5.8 3.6a1376 1376 0 0 1-27.6 17c-49.6 30.3-74 65.9-85 122.5A37.6 37.6 0 0 1 98 289c-6 11.8 2 25 9 34l1 3h2l5 5 2.6 1.7c3.4 3.3 3.2 5.8 3.5 10.5 1.8 22.6 5.3 44.5 15.9 64.8l-1 2a85.9 85.9 0 0 1-33-51l-1-4.1c-1.1-5.6-1.2-10.8-1.1-16.5v-5.9l.1-4.5h-3c.6 28.5 8.9 73.3 41 84 3.3 3.5 6.3 7 9 11-50.7 3-77.1-51.1-87.4-92.5-3-14.1-3.8-27.7-3.8-42.1l-.1-10A283 283 0 0 1 63 219l.7-3.6c1.8-8.5 4-17 6.3-25.4l1.2-4.3A146 146 0 0 1 80 162l2.1-5.9a183.4 183.4 0 0 1 38-59.5c26.7-28.2 61.6-31.8 98.5-31.8Z"/><path fill="#834a00" d="M348 100c14.3 1.1 30.7 13.8 42 22l3.4 2.5c13.4 10 25.7 22 35.6 35.5l2.6 3.4C474 221.6 449.3 347 403 397.2a110.7 110.7 0 0 1-52.3 30.8l-3.3 1c-8 2.1-8 2.1-12.5 1l2-2c25-24 35.4-53.9 35-88h-2v2.6c0 6.2 0 12.2-1 18.4l-14-2c1.3-21.1 1.3-21.1 12-23 13-6.7 19.5-16.7 25-30h1c4.2 41.6-5.6 81.6-36 112 2.7-2.7 5.4-5.4 8.3-8 9-9.8 15-21 20.7-33l1.5-3c12.3-26 10.3-57.3 6.2-85-.6-4.3-1-8.5-1.3-12.9 0-4.7 0-4.7-1.4-7.1l-1.3-11c-7.3-53.3-18.8-107-41.7-156v-2Z"/><path fill="#0c0805" d="M291 202.8c15 16.2 11.7 43 10 63.2l5 1c5.3 2.6 6.9 3.8 10 9l-1 2-2.3-1.3A40 40 0 0 0 280 274c-8.7.8-8.7.8-11-5-1.7-11.5-3-81 22-66.2Z"/><path fill="#0c0805" d="M219.6 201.3c11 12 10.6 29 10.8 44.3v3.4c0 3.4-.1 6.7-.4 10l-.2 3.7c-.9 6.1-1.6 8.9-8 10.1-5.6 0-11-.4-16.6-1A11583959990.9 11583959990.9 0 0 1 185 270c2.5-5 10.2-3 15-3l-2-5.6c-3.6-12.6-3-75.8 21.6-60Z"/><path fill="#834a00" d="M343 97c16 16 21.5 46.2 26.2 67.6.8 3.6 1.8 7.2 2.7 10.7 2.1 8.5 3.8 17 5.5 25.6l.9 4.6C389.4 264 389.4 264 389 275c-2.3-1.1-4.6-2.3-6.8-3.6-3.9-1.7-6.8-1.7-11-1.6H367l-3.1.2v-3.7c2.6-83.5 2.6-83.5-19.7-162.6C343 101 343 101 343 97Z"/><path fill="#834a00" d="M145 197v5c2.4.3 2.4.3 3-3l-1 7-4-2-.4 3.3-.5 4.3-.5 4.2c-.6 4.2-.6 4.2-1.6 7.6-5.1 18.2-5 38.8-6 57.6l-7.1-3.6c-6.8-2.4-12.3-2-18.9.6a163 163 0 0 1 9-39l1.4-5.7c2.7-11 6.6-18.3 14.6-26.3l2.5-2.6c7.3-7.4 7.3-7.4 9.5-7.4Z"/><path fill="#fcba8f" d="m133 290 2 2c.3 2.7.4 5.4.5 8.1.3 6.2.7 12.2 1.6 18.3.9 6.6 1 13 .9 19.6-15.7-.7-35.2-21-37.5-36.1-1-22 19.5-25.8 32.5-11.9Z"/><path fill="#0c0805" d="M270 88c5.2 15.7-13.3 28.3-24 36l-2.5 1.8c-11.4 8.2-23.1 16-35.2 23.2a354 354 0 0 0-52.2 38.3C153 190 153 190 150 192l-3 10c-2 0-2 0-3-4a70.9 70.9 0 0 0-27 44l-2 6.7c-1.8 6.2-3 12.4-4.2 18.7-.8 2.6-.8 2.6-3.8 2.6 1-12.9 5.6-25.4 9.4-37.7l1-3.7a68.8 68.8 0 0 1 19.8-33.8l3.8-3.8 3.6-3.8c6.8-6.9 13.7-13.3 21.4-19.2l3.7-3a300.4 300.4 0 0 1 33.5-22.3A396 396 0 0 0 256 107l3.3-2.6c5.2-4.6 8.2-10 10.7-16.4Z"/><path fill="#0c0805" d="m265 109 2 1c-3.7 9.5-8 17.7-14 26l-2.5 3.5a473 473 0 0 1-18.2 23.5 560.4 560.4 0 0 0-15.3 20l-2.6 3.4c-8.9 12-16 25.2-23 38.3-2.4 4.3-2.4 4.3-4.4 5.3-1.2-21.4 12.4-36.1 25.6-51.6 6.9-7.7 6.9-7.7 12.4-16.4-10.6-.7-18.2-.3-27 6l-4.3 3-13.7 10c-9.7 7.1-9.7 7.1-12 6 5.3-6.1 10.7-11.8 17-17l3.6-3 3.9-3.3 3.7-3a28.6 28.6 0 0 1 18.2-6h3.4c3.2.3 3.2.3 8.2 1.6 7.3 1.3 10.4-6 14.3-11.6l2.7-3.8 2-2.9-4 3-6.6 3.7-3.4 1.9c-3 1.4-3 1.4-6 1.4 0-6.7 0-6.7 5-10a3303094875.4 3303094875.4 0 0 0 6.8-4.3C247.6 127 258.1 120 265 109Z"/><path fill="#fcba8f" d="M380.6 274.7c13 12.7 7.5 31.5-1.6 45.3-5.6 6.4-12 13-21 13 0-4.2 0-8.4.5-12.6.6-5.4.8-10.9 1-16.3 1.3-38.7 1.3-38.7 21.1-29.4Z"/><path fill="#0c0805" d="M311 347c0 4.8-3.7 6.8-7 10l-1 2h-2l-2 4c-18.9 17-40.2 22.3-63.3 10.3-16.8-7.8-31.6 2-46.2 10-3.5 1.7-3.5 1.7-5.5 1.7 1.7-5 6.2-7.2 10.9-9.3 3.7-2 5.8-4.4 8.5-7.6 9.4-10.5 22.8-14.5 36.2-7.9l4.4 2.8c21.7 12.6 50.4.6 67-16Z"/><path fill="#0c0805" d="M136 99c2 4-3.5 9.7-5.8 13.3a413.5 413.5 0 0 0-25.1 47.8l-1.4 3c-2.6 6-4.8 12-6.8 18.2-1.2 3.6-2.6 7.1-3.9 10.7-23.4 67-28.6 139.6 8.5 202.3 1.5 2.7 1.5 2.7 1.5 4.7-11-5.5-16.2-18.3-21-29l-1.7-3.7c-4-9.5-6.5-19.2-8.3-29.3l-.5-3a186.9 186.9 0 0 1-1.8-31.2v-5.6c.1-14.6 1-28.8 3.3-43.2l.8-5.3A385.6 385.6 0 0 1 107.5 148c8-17 17.2-33.8 28.5-48.9Z"/><path fill="#f9fafa" d="M216 201c6.4 5.2 8.4 11.6 10.2 19.4l1 4.3c.8 4.2 1 8 .8 12.3l-1.9-2.4c-3.4-4.1-5.9-4.1-11.1-3.6-9 8.5-5.4 25.2-3 36-9 1.7-9 1.7-11.6-2.6-3.6-11.8-5.3-69 15.6-63.4Z"/><path fill="#f9fafa" d="M289 204c10.3 12 10.6 27 10 42-2-3-2-3-3.5-6-2.7-5.4-4.7-5.6-10.5-5-5 5-5.1 6-5.1 12.8V260.4l.1 10.6c-7.5 1-7.5 1-9.5-3.2-1.3-11.8-3.1-72.9 18.5-63.8Z"/><path fill="#f9fafa" d="m225 462 .1 3.6A60 60 0 0 0 241 506c2 2.9 2 2.9 2 5.9-24 2.7-24 2.7-28.5-3.6-1-4.8-1.3-9.5-1.5-14.4-1-3.6-1-3.6-2.2-6.8-5.5-17.4-5.5-17.4.3-21.3l3.9-.9 3.2-1.7c2.8-1.3 2.8-1.3 6.8-1.3Z"/><path fill="#0c0805" d="M237 85c0 4.3-2 5.3-5 8.3l-3.1 3.2-3.4 3.3-3.3 3.2a338.2 338.2 0 0 1-17.2 16l-4.5 4.5a2774.7 2774.7 0 0 0-32.8 30.3 195.1 195.1 0 0 0-17.8 17.8c-4 4.5-8 8.7-12.3 12.9l-2.3 2.3A7064 7064 0 0 1 105 217c1.3-5.5 3.4-9.7 6.3-14.6a2389195551.5 2389195551.5 0 0 1 8.8-14.7 333.5 333.5 0 0 1 49-66.4 120.9 120.9 0 0 1 15-13.9c12.6-10.6 12.6-10.6 14.9-9.4l-2.8 2.4c-18 15.4-18 15.4-34.2 32.6l-2 2.4a393.1 393.1 0 0 0-36.3 51.9l-1.7 2.6-1.6 2.5c-2.7 4.2-5.2 8.2-7.4 12.6 2.6.3 2.6.3 4-4l5.9-5.9a246.8 246.8 0 0 1 17.5-18.5 126 126 0 0 0 6.2-6.8c2.4-2.8 2.4-2.8 4.4-2.8l2-4 5-5.3 2.7-2.7c2.3-2 2.3-2 4.3-2v-2l5.7-5c2.3-2 4.6-4.2 6.8-6.5 4-4 8.2-7.8 12.5-11.5l16-14.5 19.8-17.8c2.9-2.4 5.6-5 8.2-7.7l3-3Z"/><path fill="#0c0805" d="M380 124c45.7 22.9 51.3 108.5 53 152l.2 3.8a187.8 187.8 0 0 1-12 78.9c-4.8 12.1-4.8 12.1-7.2 13.3 1-4.6 2.2-8.7 3.7-13.2 22-69.4 17.6-171-32.3-228a120 120 0 0 1-5.4-6.8Z"/><path fill="#0c0805" d="M263.7 289.2a42 42 0 0 1 5.6 24.3v6c-.3 4.5-.3 4.5-2.3 5.5l-.6-2.7c-2.6-20-2.6-20-17.4-28.3-9 4.8-10.8 16.2-12.4 25.3-.6 2.7-.6 2.7-1.6 2.7-4.6-16.7 8.3-57 28.7-32.8Z"/><path fill="#b58564" d="M130 302c2 2 2 2 4 6l2 2c2.6 13.2 2.6 13.2-1 15-12 0-18.8-8-22-19 0-12 9.3-9.3 17-4Z"/><path fill="#f9fafa" d="m272 470 5 2 9 2c-.6 3-1.2 6-2 9a101.6 101.6 0 0 0-2.8 25l-.2 4h-13l3-13c1.2-6 1.2-11.5 1.1-17.6v-3.3l-.1-8.1Z"/><path fill="#834a00" d="m121 337 5 2 3.2.3c11.7 1.2 12.6 8 13.8 18.7 0 6.2-.3 5.7-5.8 7.4l-3.3 1c-2.9.6-2.9.6-5.9-.4-3.4-9.3-5.5-19.2-7-29Z"/><path fill="#0c0805" d="m320.2 178 3 4.2c2.4 3.2 4.6 6.5 6.8 9.8-8.2-3.3-13.2-9.2-19-15.6-15.3-16.7-27.8-11.8-46-2.4 14-28 41.3-14.7 55.2 4Z"/><path fill="#0c0805" d="M219.6 201.3c11 12 10.8 29.3 10.4 44.7h-2a88 88 0 0 1-1-12.8c-.1-10.7-2.6-27-13-32.2-16 3.2-15.3 35.2-15.2 48.1.3 6.1 1.7 12 3.2 17.9-4.7 0-5.3-10.1-6-14-1-12.3.8-66.3 23.6-51.7Z"/><path fill="#c1c5c5" d="m219 464-1 4.6c-1.3 7-2.2 13.6-2.6 20.8l-.2 4.9-.2 3.7a62.1 62.1 0 0 1-7-30c3.3-2.3 3.3-2.3 7-3 2-1 2-1 4-1Z"/><path fill="#0c0805" d="M301 96c0 4.5-2.4 5.8-5.4 9a207 207 0 0 0-11.2 12.6c-3 3.8-6.1 7.4-9.4 10.9-5.7 6.2-11 12.6-16.1 19.2A227.6 227.6 0 0 1 239 169c0-4 1.4-4.6 4.3-7.3 5.1-5 9.4-10.3 13.8-16 7.2-9.2 15-17.9 23-26.5l5.2-6c5.1-5.8 10.4-11.5 15.7-17.2Z"/><path fill="#636167" d="M300 225h1c1.7 11.6 1.4 23.4.3 35.1-1.3 6.1-1.3 6.1 2.7 6.9-8.2-1.6-8.3-3.3-8.3-11.4l.1-3.2V249l.2-8.1 2 2 2-18Z"/><path fill="#0c0805" d="M291 202.8c7.8 8.4 9.1 18.1 9 29.2a48 48 0 0 1-3.8-11.3c-2.5-10.3-2.5-10.3-10.2-17-11.8 1.4-13.4 22-15 31.3-6.8-10.3 5.4-40.9 20-32.2Z"/></svg>