<svg xmlns="http://www.w3.org/2000/svg" width="1024" height="1024" class="injected-svg" data-src="https://storage.googleapis.com/illustroke-c1d67.appspot.com/eSmBHqSRcJdyOybnPHAQRyUD4v32/U57NVDXROJKWXVBR967D-1.svg" xmlns:xlink="http://www.w3.org/1999/xlink" viewBox="0 0 512 512"><path fill="#fdfdfd" d="M0 0h512v512H0V0Z"/><path fill="#fcf300" d="M269.8 77.8h4.5C302 78 302 78 305 81l6.9 1.4a116.5 116.5 0 0 1 31.2 9.9A161 161 0 0 1 381 114l2.7 2.2c13 10.4 25.4 21.4 35.3 34.8l2.3 3.1A203 203 0 0 1 450 211l1 2.6c4.8 15.5 5.6 31.1 5.4 47.2v5.8a141 141 0 0 1-4.2 35.7 182 182 0 0 1-12 34 186.6 186.6 0 0 1-29.3 44.1c-4.3 5-8.9 9.3-13.9 13.6l-4.5 4c-16 14.1-35.4 25.7-55.5 33l-5.6 2-5.4 2-3.7 1.5A130.6 130.6 0 0 1 282 443h-3.1c-23.8.6-45.7-.9-67.9-10l-6.3-2a142.9 142.9 0 0 1-38.7-21l-3.5-2.6c-6.2-4.8-12-9.7-17.5-15.4l-3.9-3.3a98.4 98.4 0 0 1-11-12c-1.6-2.1-3.4-4-5.1-6A163.1 163.1 0 0 1 98 322l-2-5c-2.6-7-3.8-14.4-5.2-21.7-.7-4.1-.7-4.1-1.8-7.3-3-28.7-2.7-60.2 9-87l1.3-4.1c2.6-7.3 6.1-14 9.7-20.9l2.4-4.7C134.8 132 134.8 132 144 132l2-4c16.3-15.8 36-28.6 57-37l4.6-1.9L213 87l5.2-2c6.8-2.5 13.7-3.8 20.8-5l3-.5c9.3-1.5 18.4-1.8 27.8-1.8Z"/><path fill="#fcf300" d="M269.8 77.8h4.5C302 78 302 78 305 81l6.9 1.4a116.5 116.5 0 0 1 31.2 9.9A161 161 0 0 1 381 114l2.7 2.2c13 10.4 25.4 21.4 35.3 34.8l2.3 3.1A203 203 0 0 1 450 211l1 2.6c4.8 15.5 5.6 31.1 5.4 47.2v5.8a141 141 0 0 1-4.2 35.7 182 182 0 0 1-12 34 186.6 186.6 0 0 1-29.3 44.1c-4.3 5-8.9 9.3-13.9 13.6l-4.5 4c-16 14.1-35.4 25.7-55.5 33l-5.6 2-5.4 2-3.7 1.5A130.6 130.6 0 0 1 282 443h-3.1c-23.8.6-45.7-.9-67.9-10l-6.3-2a142.9 142.9 0 0 1-38.7-21l-3.5-2.6c-6.2-4.8-12-9.7-17.5-15.4l-3.9-3.3a98.4 98.4 0 0 1-11-12c-1.6-2.1-3.4-4-5.1-6A163.1 163.1 0 0 1 98 322l-2-5c-2.6-7-3.8-14.4-5.2-21.7-.7-4.1-.7-4.1-1.8-7.3-3-28.7-2.7-60.2 9-87l1.3-4.1c2.6-7.3 6.1-14 9.7-20.9l2.4-4.7C134.8 132 134.8 132 144 132l2-4c16.3-15.8 36-28.6 57-37l4.6-1.9L213 87l5.2-2c6.8-2.5 13.7-3.8 20.8-5l3-.5c9.3-1.5 18.4-1.8 27.8-1.8ZM222 115l-3.2.8c-50 13.3-81.2 62.2-89.8 110.2l-.7 3.7A153 153 0 0 0 127 259v3.3c.9 24.7 12.1 52.2 27 71.7l2.2 3c36.2 45.8 100.7 64.3 153.4 36.1a137.8 137.8 0 0 0 67.7-87.2c.7-2.9.7-2.9 1.7-3.9 8-33.3 3.2-70.9-13-101l-1.6-3.1a136.5 136.5 0 0 0-62.1-57.3C299 119 299 119 296 117l-9-2-3.4-1c-9.9-2.8-19-3.4-29.2-3.4H250c-10 .1-18.7 1.1-28.1 4.4Z"/><path fill="#ef9820" d="M259 92a166.3 166.3 0 0 1 41.6 4.7c11 2.3 21.4 5 31.4 10.3l4.4 1.6A137 137 0 0 1 371 129l2.7 2.1a303 303 0 0 1 22.7 20.2A168.8 168.8 0 0 1 428 200l1.7 3.6a161.2 161.2 0 0 1 14.5 69.3c-.2 15.8-1.8 30.9-6.2 46.1l-1 3.6c-8.8 29.1-24.4 51.1-45 73.1-2.3 2.4-2.3 2.4-4 6.3a175.3 175.3 0 0 1-51 29l-5.6 2-5.4 2-3.7 1.5c-20.4 7.2-42 6.5-63.3 6.5v-57l23-3c46.2-13.9 83-49.5 94.3-97.1.7-2.9.7-2.9 1.7-3.9 8-33.3 3.2-70.9-13-101l-1.6-3.1a133.8 133.8 0 0 0-61.1-56.3C299 120 299 120 296 118l-9-2-3.4-1c-8.2-2.3-16.2-3.4-24.6-4V92Z"/><path fill="#ef9820" d="m391 394 2 1-2 1v-2Zm-1 4c-8.6 17.3-42.1 30.3-60 35 2.4-4.8 3.3-4.8 8.3-6.3 6.4-2.2 12.3-4.8 18.3-8l6.5-3c6-2.8 23.1-19.6 26.9-17.7Z"/></svg>