<svg xmlns="http://www.w3.org/2000/svg" width="1024" height="1024" class="injected-svg" data-src="https://storage.googleapis.com/illustroke-c1d67.appspot.com/eSmBHqSRcJdyOybnPHAQRyUD4v32/F65IU57A9SNDN0TUAR4HN-1.svg" xmlns:xlink="http://www.w3.org/1999/xlink" viewBox="0 0 512 512"><path fill="#5c78fd" d="M0 0h512v512H0V0Z"/><path fill="#f8cea0" d="M368 102c29.6 20.4 31 67 31.8 99.6.3 11.8.3 11.8 2.2 23.4l2.1-1.8c12-10.1 22-15.6 36.3-5.9C455.8 233 467.6 257 454 277c-9.3 11.6-21.5 17.8-36 12l-.8 5.3c-3 17.2-9 32.2-17.2 47.7l-1.6 3.2A98 98 0 0 1 381 367l-3.6 4c-22.4 20.4-51.7 37.7-82.4 38.5-5.7 1-7 5.6-7.1 10.8 0 3.7 0 3.7.9 7 .3 5-1.4 6.6-4.6 10.3A87.8 87.8 0 0 0 276 449c-4.5-4.5-7.9-9.3-11.5-14.5-1.9-2.7-3.9-5.2-6-7.7-3.1-4.7-4-9.3-5.5-14.8a79 79 0 0 0-23-26l-3-2.4-14-10.5a134 134 0 0 1-45-52.1l-1.4-3a100.7 100.7 0 0 1-8.6-36l-4.8 3.5c-13.4 8.5-26.3 2.2-36.2-8.5-9.7-14.2-16.6-32.3-2.7-46.3 5.6-5.2 8-6.8 15.5-6.9h3.7c3.5.2 3.5.2 8.5 2.2h4v-5.1c.8-33.4 7.7-85.8 42-102.9a315.8 315.8 0 0 1 7 22.9c1 4.1 1 4.1 1 9.1a843.4 843.4 0 0 0 23.9.8 354.9 354.9 0 0 0 14 .3c6.3-1.7 5.5-5 6.1-11.1 2.8-10 2.8-10 4-10 .8 6.7 1 13.2 1 20a691 691 0 0 0 30.6 1.5c15 1.8 15 1.8 26-6 1-5.2 1.3-10.1 1.4-15.5l2-3a1369.7 1369.7 0 0 1 2.3 11.8c.7 4.2.7 4.2.7 11.2l55-1 2.5-28 .5-5.2.5-5.4c.5-4.4.5-4.4 1.5-8.4Z"/><path fill="#bb6100" d="m347 40 3.7 1c16.8 4.6 32 14 45.3 25l3 2.3a116.2 116.2 0 0 1 35.6 73.3c.2 3.3.2 3.3 1.4 5.4.8 20-1 38.5-5 58l4 1c19.3 8.7 31.3 40 29 60a53 53 0 0 1-37.4 32.6c-4.4 2.4-4.4 6.7-5.6 11.4-1.2 2.6-2.3 5.3-3.6 7.9l-4.8 11.1a128.6 128.6 0 0 1-44.4 54.2c-20.9 16.1-45 30.9-72.2 29.8 1.2 15.9 20.5 22.4 34.2 24.7 4.1.4 4.1.4 9.6.2h3.1c2 0 4.2 0 6.3-.2 6.4 0 7.5.4 9.8 6.6l1 6.7a382.4 382.4 0 0 0 2.8 13l.8 3.5L366 479l.9 4 2.5 12 .8 3.8A46 46 0 0 1 372 512H169c0-5.7.1-9.4 1.3-14.7 2-9.7 3.4-19.5 4.7-29.3 1.5-11 3.1-22 5-33a340 340 0 0 1 43 2l.3-3c1-4.6 3.2-4.2 7.7-5 12.6-1.6 12.6-1.6 18.4-10.6-4.1-15.6-14.9-22-27.6-30.6A174.4 174.4 0 0 1 171 339l-2.4-3.8C160.8 322.8 153 307 153 292l-3.8.1c-14.6.4-22.9-1.6-34.2-11.1l-2.5-1.9a29.4 29.4 0 0 1-6.2-7.5l-1.7-2.8c-8.8-15.6-3.3-33.5 9.4-44.8 6-3.6 9-5 16-5l2 5-4 .1a25.4 25.4 0 0 0-20.6 24.8c.4 16.7 10.6 34.9 27.6 39.1 9.3.7 13.4-.1 21-6 4.2 0 4.2 7 4.8 10.4l.9 5c4 19.9 13 37.3 26.3 52.6l3.7 4.5c8.7 9.7 20.1 16.9 30.5 24.6a354.4 354.4 0 0 1 17.3 13.8 43.4 43.4 0 0 1 16.1 25.3c1.7 6 4.8 9.6 8.7 14.4 4 5 7.3 10.1 10.7 15.4l1.7-2.2c1.5-1.8 3-3.6 4.7-5.4 6-7 7.5-11.1 5.8-20.2-.3-4.8 1.4-7.8 4.8-11.2 2.1-.2 4.2-.4 6.3-.4 65.4-4 105.8-61.9 119.7-119.6l5 1c17.6 1.2 30.4-8.3 36-25a53.5 53.5 0 0 0-26-51c-12-4-20 2.8-28.8 10.2-2.2 1.8-2.2 1.8-3.2 1.8a280 280 0 0 1-2.4-30.8c-.8-29.8-3.2-73-29.6-92.2-1.4 4.2-1.6 8.3-2 12.7l-.5 5.8a11808 11808 0 0 0-1.6 18.1l-.4 5.4c-.5 4-.5 4-1.5 5a460.6 460.6 0 0 1-15.8 0 6492 6492 0 0 1-39.2 0l-3-20c-2.2 0-2.7 7.4-3 8.9-2.5 11.5-3.4 11.4-15 11.3h-3.5a3128.7 3128.7 0 0 1-38.5-.2l-2-18-1.2 8.8c-3.6 13-12.5 12.5-24.6 12.3h-5.9c-16.6-1.1-20.3-7.4-22.6-23-.4-3.8-.6-7.4-.7-11.1-31.5 20-40.5 63.8-40.4 98.3 0 8.6 0 8.6-5.6 9.7-26-7.3-23.2-60.4-21.8-81.7 3.4-27.3 19.2-51 37.8-70.3l3.4-3.6A153 153 0 0 1 218 38l3.1-1c40.3-12 85.8-7 125.9 3Z"/><path fill="#070606" d="m347 40 3.7 1c16.8 4.6 32 14 45.3 25l3 2.3a116.2 116.2 0 0 1 35.6 73.3c.2 3.3.2 3.3 1.4 5.4.8 20-1 38.5-5 58l4 1c19.3 8.7 31.3 40 29 60a53 53 0 0 1-37.4 32.6c-4.4 2.4-4.4 6.7-5.6 11.4-1.2 2.6-2.3 5.3-3.6 7.9l-4.8 11.1a128.6 128.6 0 0 1-44.4 54.2c-20.9 16.1-45 30.9-72.2 29.8 1.2 15.9 20.5 22.4 34.2 24.7 4.1.4 4.1.4 9.6.2h3.1c2 0 4.2 0 6.3-.2 6.4 0 7.5.4 9.8 6.6l1 6.7a382.4 382.4 0 0 0 2.8 13l.8 3.5L366 479l.9 4 2.5 12 .8 3.8A46 46 0 0 1 372 512H169c0-5.7.1-9.4 1.3-14.7 2-9.7 3.4-19.5 4.7-29.3 1.5-11 3.1-22 5-33a340 340 0 0 1 43 2l.3-3c1-4.6 3.2-4.2 7.7-5 12.6-1.6 12.6-1.6 18.4-10.6-4.1-15.6-14.9-22-27.6-30.6A174.4 174.4 0 0 1 171 339l-2.4-3.8C160.8 322.8 153 307 153 292l-3.8.1c-14.6.4-22.9-1.6-34.2-11.1l-2.5-1.9a29.4 29.4 0 0 1-6.2-7.5l-1.7-2.8c-8.8-15.6-3.3-33.5 9.4-44.8 6-3.6 9-5 16-5l2 5-4 .1a25.4 25.4 0 0 0-20.6 24.8c.4 16.7 10.6 34.9 27.6 39.1 9.3.7 13.4-.1 21-6 4.2 0 4.2 7 4.8 10.4l.9 5c4 19.9 13 37.3 26.3 52.6l3.7 4.5c8.7 9.7 20.1 16.9 30.5 24.6a354.4 354.4 0 0 1 17.3 13.8 43.4 43.4 0 0 1 16.1 25.3c1.7 6 4.8 9.6 8.7 14.4 4 5 7.3 10.1 10.7 15.4l1.7-2.2c1.5-1.8 3-3.6 4.7-5.4 6-7 7.5-11.1 5.8-20.2-.3-4.8 1.4-7.8 4.8-11.2 2.1-.2 4.2-.4 6.3-.4 65.4-4 105.8-61.9 119.7-119.6l5 1c17.6 1.2 30.4-8.3 36-25a53.5 53.5 0 0 0-26-51c-12-4-20 2.8-28.8 10.2-2.2 1.8-2.2 1.8-3.2 1.8a280 280 0 0 1-2.4-30.8c-.8-29.8-3.2-73-29.6-92.2-1.4 4.2-1.6 8.3-2 12.7l-.5 5.8a11808 11808 0 0 0-1.6 18.1l-.4 5.4c-.5 4-.5 4-1.5 5a460.6 460.6 0 0 1-15.8 0 6492 6492 0 0 1-39.2 0l-3-20c-2.2 0-2.7 7.4-3 8.9-2.5 11.5-3.4 11.4-15 11.3h-3.5a3128.7 3128.7 0 0 1-38.5-.2l-2-18-1.2 8.8c-3.6 13-12.5 12.5-24.6 12.3h-5.9c-16.6-1.1-20.3-7.4-22.6-23-.4-3.8-.6-7.4-.7-11.1-31.5 20-40.5 63.8-40.4 98.3 0 8.6 0 8.6-5.6 9.7-26-7.3-23.2-60.4-21.8-81.7 3.4-27.3 19.2-51 37.8-70.3l3.4-3.6A153 153 0 0 1 218 38l3.1-1c40.3-12 85.8-7 125.9 3Zm-101-2-3.4.5C189.2 48.3 138.7 87.1 126 141l-1.1 4.6A145 145 0 0 0 129 207l.7 3.1c1.8 7 1.8 7 8.6 8.6l4.7-.7.1-4.4a153 153 0 0 1 10-53.6c6.4-16.8 21.3-42.7 37.9-51l.6 2.5c1 5 2.2 10 3.9 14.9 1.8 5.4 2.8 10.9 3.9 16.5 1.5 7.2 11.4 4.6 17.5 4.7 1.5 0 3 0 4.5.2 8 .5 8 .5 13.9-4l.7-4.8 2-6.7 3.1-11c2.7-9.3 2.7-9.3 4.9-9.3l.2 3.1.2 4.2.3 4c.2 3.8.2 3.8 1.3 7.7l.6 7.8.2 4 .2 3.2a656.7 656.7 0 0 0 26.7 1.2c12.7 1.5 12.7 1.5 22.4-4.5.8-4.3 1-8.3.9-12.7a234 234 0 0 1 2.2-8.3c1.1-3.8 1.8-6.7 1.8-10.7h5l2 23.7 1 11.3h48l1.4-16.5.5-5.1L363 95c42.5 19.2 39.7 82 41 122 4.7-1.6 4.7-1.6 7.1-3.8 2.8-2.1 5.3-3.4 8.5-4.9 5.8-3 7-5.9 8.4-12.3l1.1-3c16.2-54.4-13.8-113-62-138-7.2-3.5-14.6-6.3-22.1-9l-4-1.5a195.7 195.7 0 0 0-95-6.5Z"/><path fill="#fbfbfb" d="M276.7 193.9a52.7 52.7 0 0 1 6.6 26.5v4.8a49.6 49.6 0 0 1-5.7 21l-1.7 3.6c-7.3 12.7-18.6 17.3-32.9 16.2-24-9.4-29-33.7-27-57 7.1-30.4 42.6-46.3 60.7-15.1ZM362 195a104.2 104.2 0 0 1 5 14.4c5.7 22.1-3.8 44.1-23 55.6-17.1 4.3-30.7-4.7-38-20l-2.8-5.3c-8.5-20.9-.8-46.4 16.8-59.7 17-9.5 32.9-.5 42 15Z"/><path fill="#070606" d="M367.8 193.9c10 23 7 54.6-14.9 70.3-3.6 3.4.1 6.8 2.2 10.4 5.6 16 3.1 32.4-12.1 41.4a53 53 0 0 1-23.4 4.6h-3.4c-14.2-.4-29-3-41.2-10.6 0-2 0-2 5-4 5.2 1 10.2 2.5 15.3 4 8.7 2.3 17.3 2.2 26.2 2.3l3.9.1c12.4 0 22.8-3.5 26.6-16.4 1.2-9.5.3-18.4-6-26-3.3-.5-3.3-.5-7 1-22.7 1-35.7-13.5-42.3-34-4-27.2 2.8-50.8 27.6-64.9 18.8-5.7 34.5 5.8 43.4 21.8Zm-67.2 23c-.7 20.5 6.6 42.4 28.4 49.1 19 1.3 32.5-11.3 37.2-29.4 5.6-24-1.2-49.2-25.1-60-24.7-5.5-38.8 19.1-40.5 40.3Z"/><path fill="#d1d100" d="M286 452c4 9 6.6 18.4 9.3 27.9a293 293 0 0 0 7.7 23c1 3.1 1 3.1 0 5.1l-6-5 3 9h-48a176.4 176.4 0 0 1 8.3-23l3.9-8.8c2.4-6.8 3.4-13.7 4.5-20.8 1.5-5 2.7-6 7.3-8.4l3.1-2c2.9-1 2.9-1 6.9 3Z"/><path fill="#070606" d="m229 329 2 6c28.2 37.4 79.6 43.3 120.2 24.3 8.1-4.3 21.6-12 25.8-20.3h2l2-4c5.3-6 5.3-6 10-6-7.6 38.2-64.4 49.8-95.9 49.3-28-.9-56.4-14-70.1-39.3v-4l-4.4.3c-4.6-.3-4.6-.3-5.6-5.3 4.9-1.2 9-1.5 14-1Z"/><path fill="#070606" d="M280.8 189.8c14.5 23.4 9.9 51.1-7.8 71.2-13 10.8-29.8 15.3-44 4a58.4 58.4 0 0 1-15-22l-1.6-3.6c-7.5-24.2 1.3-52.5 23.6-65.4 18.3-7.3 34.3.2 44.8 15.8ZM218 203l-1.1 2.7a52.8 52.8 0 0 0 22.4 59.2c20.3 5.9 32.7-6.8 41-23.6 8-20.2 3-47.4-15.3-60.3-21.1-12.4-39.2 2.2-47 22Z"/><path fill="#fbfbfb" d="M256 428c2 2.9 3.8 5.9 5.6 8.9l3 5c4.7 8.1 3.6 12.6-1 20.8l-2.3 4.5C259 471 259 471 256 474a540.3 540.3 0 0 1-18.4-26.9l-3-4.5C233 439 233 439 236 436l5.9-2.5L256 428Z"/><path fill="#fbfbfb" d="m300 431 8.4 4.8 4.4 2.6c3.2 2.6 3.2 2.6 1.2 7.6l-6.6 9.8-1.9 2.7-4.5 6.5c-15.1-14.5-15.1-14.5-13-23l6-8c2-4 2-4 6-3Z"/><path fill="#070606" d="M339 209c3.5 5.3 3.1 10.3-.4 15.5-4.4 4.2-7.5 4-13.6 3.5-6-4.8-6.6-8.4-6-16 5.6-8.2 12-9.5 20-3ZM268 212c3.8 5.7 3 11.4-.4 17.1-5.2 4.2-9.8 4.6-15.6 1-4.9-5.3-4.4-13-.5-18.7 6.3-4.3 10.2-3.2 16.5.6Z"/></svg>